<?xml version="1.0" encoding="UTF-8" standalone="no"?>
<svg xmlns="http://www.w3.org/2000/svg" width="12" height="20" version="1.0" >
  <g id="layer1" transform="translate(-369,-522.5)">
    <path style="opacity:1;fill:#fce94f;fill-opacity:1;stroke:#c4a000;stroke-width:1.28900003;stroke-linecap:square;stroke-linejoin:miter;stroke-miterlimit:4;stroke-dasharray:none;stroke-dashoffset:0;stroke-opacity:1"
          d="M 374.5,523.44464 C 371.97974,523.70084 370,525.85714 370,528.44464 C 370,529.60548 370.39796,530.65825 371.0625,531.50714 C 371.0625,531.50714 372.99553,534.44464 373.03125,536.44464 L 376.875,536.44464 C 376.98035,534.75896 378.85786,531.55646 379,531.41339 C 379.62405,530.5791 380,529.56589 380,528.44464 C 380,525.68464 377.76,523.44464 375,523.44464 C 374.8275,523.44464 374.66802,523.42756 374.5,523.44464 z " />
    <path style="fill:#2e3436;fill-rule:evenodd;stroke:#000000;stroke-width:1px;stroke-linecap:butt;stroke-linejoin:miter;stroke-opacity:1"
          d="M 373.03572,539.43182 C 373.53572,538.93182 376.50893,538.93182 377,539.43182 C 377.49107,539.93182 375.99107,541.43182 375,541.43182 C 374.00893,541.43182 372.53572,539.93182 373.03572,539.43182 z " />
    <path style="fill:#d3d7cf;fill-rule:evenodd;stroke:#555753;stroke-width:1px;stroke-linecap:butt;stroke-linejoin:miter;stroke-opacity:1"
          d="M 373,536.43182 L 377,536.43182 L 377,539.43182 L 373,539.43182 L 373,536.43182 z " />
  </g>
</svg>
